<?xml version="1.0" encoding="UTF-8"?>
<svg id="Layer_2" xmlns="http://www.w3.org/2000/svg" viewBox="0 0 121.27 70.83">
  <defs>
    <style>
      .cls-1 {
        fill: #c3dbe5;
        stroke: #231f20;
        stroke-miterlimit: 10;
      }
    </style>
  </defs>
  <g id="Layer_1-2" data-name="Layer_1">
    <g>
      <path class="cls-1" d="M111.34,45.42c0-5.68,0-11.73,0-18.15,0-2.02,1.49-3.53,3.48-3.74.41-.04,1.03-.05,1.86-.02,1.44.06,2.58.65,3.4,1.78.44.61.66,1.3.67,2.09.01,9.87.01,22.96,0,39.27,0,1.07-.02,1.66-.04,1.78-.28,1.21-1.32,1.84-2.53,1.84-2.04,0-3.5,0-4.39,0-1,.01-1.93-.58-2.29-1.47-.14-.33-.19-.91-.17-1.72,0-.1,0-3.01,0-8.75,0-.02-.02-.04-.04-.04H12.61s-.07.03-.07.07c0,4.83,0,8.01,0,9.54,0,1.6-1.2,2.43-2.69,2.43-4.27,0-6.59-.01-6.98-.01-.55,0-1.04-.16-1.48-.49-.74-.56-.9-1.29-.9-2.18,0-4.27,0-25.17,0-62.68,0-.47.09-.98.26-1.53.43-1.34,1.49-2.37,2.82-2.75.46-.13,1.25-.19,2.38-.18,1.78.02,2.81.02,3.08,0,.42-.02.81,0,1.15.08,1.55.34,2.38,1.62,2.38,3.16,0,25.27,0,38.39,0,39.36,0,.37,0,.61.02.73.1.78.76,1.64,1.6,1.64,18.87,0,51.23,0,97.09,0,.03,0,.06-.03.06-.06h0Z"/>
      <path class="cls-1" d="M15.93,27s-.08-.02-.08-.07c-.01-3.92,0-6.65,0-8.18.01-1.35,1.32-2.37,2.55-2.73.62-.18,1.23-.29,1.85-.34,5.29-.4,10.99-.15,15.72,2.49,2.8,1.56,5.59,4.35,6.32,7.54.12.55-.02.97-.44,1.28-.86.63-1.9.69-2.96.69-2.86-.02-8.51-.02-16.93,0-1.72,0-3.4-.14-4.99-.86-.04-.02-.08-.02-.12-.01l-.93.18h0Z"/>
      <path class="cls-1" d="M15.94,41.71v-10.18s.02-.04.04-.04c7.82,0,15.72,0,23.69,0,1.47,0,3.02-.37,4.12-1.38.64-.58,1.37-1.36,1.96-1.93,2-1.93,4.26-2.42,6.96-2.42,30.13,0,46.37,0,48.72,0,.04,0,.37,0,.98.03,1.84.05,3.39.73,4.64,2.02.98,1.01,1.76,2.49,1.9,3.89.02.17.03.73.02,1.67,0,4.07,0,6.41,0,7,0,.72-.32,1.17-.98,1.36-.44.12-1.22.05-1.55.05-30.15,0-60.3,0-90.45,0-.03,0-.06-.03-.06-.06h0Z"/>
    </g>
  </g>
</svg>