<?xml version="1.0" encoding="UTF-8"?>
<svg id="Layer_2" xmlns="http://www.w3.org/2000/svg" viewBox="0 0 701.12 582.67">
  <defs>
    <style>
      .cls-1 {
        fill: #c2dbe5;
        fill-rule: evenodd;
        stroke: #000;
        stroke-miterlimit: 10;
        stroke-width: 3px;
      }
    </style>
  </defs>
  <g id="_x2014_ÎÓÈ_1">
    <path class="cls-1" d="M220.48,350.63l-5.59-37.12h77.41c15.03,0,29.21,12.34,31.48,27.36l1.48,9.79h-103.36c-.47,0-.95-.01-1.41-.04M168.16,379.75l-3.47-23.04c4.39,6.4,10.06,11.95,16.52,16.21l.26.17c.69.56,1.38,1.1,2.09,1.63,10.42,7.81,23.1,12.54,36.16,12.54h133.47l1.66,13.04,4.56,35.88h-126.35c-15.48,0-30.54-6.35-42.31-16.59-11.78-10.23-20.26-24.34-22.59-39.84ZM201.37,470.67h330.72c-2.31,6.64-3.66,12.88-4.46,19.1-.86,6.81-1.06,13.35-1.1,20.27H206.74c-.04-7.07-.22-13.63-1.04-20.34-.77-6.2-2.08-12.41-4.33-19.04ZM108.55,427.1c-21.27,0-40.54,8.62-54.47,22.56-13.94,13.94-22.56,33.2-22.56,54.47s8.62,40.54,22.56,54.47c13.94,13.94,33.2,22.56,54.47,22.56s40.53-8.62,54.47-22.56c13.94-13.94,22.56-33.2,22.56-54.47s-8.62-40.53-22.56-54.47-33.2-22.56-54.47-22.56ZM622.59,427.1c-21.27,0-40.53,8.62-54.47,22.56-13.94,13.94-22.56,33.2-22.56,54.47s8.62,40.54,22.56,54.47c13.94,13.94,33.2,22.56,54.47,22.56s40.54-8.62,54.47-22.56c13.94-13.94,22.56-33.2,22.56-54.47s-8.62-40.53-22.56-54.47c-13.94-13.94-33.2-22.56-54.47-22.56ZM114.67,213.59H46.85c-.3.01-.6.03-.9.07-3.49.5-5.93,3.73-5.43,7.23l18.44,126.53c-31.73.73-57.46,26.91-57.46,58.8v58.82h16.27c15.15-35.13,50.09-59.72,90.77-59.72s75.63,24.59,90.77,59.72h163.76l-2.96-23.25h-127.06c-16.86,0-33.22-6.88-45.98-17.97-12.75-11.09-21.95-26.4-24.48-43.24l-4.91-32.62c-.04-.18-.05-.37-.05-.56h-.05L111.99,44.79h363.75l80.21,299.36h-24.5l-114.2-114.2,28.15-28.15c4.39-4.39,4.39-11.52,0-15.92-4.39-4.39-11.52-4.39-15.92,0l-72.21,72.22c-4.39,4.39-4.39,11.52,0,15.92,4.39,4.39,11.52,4.39,15.92,0l28.15-28.15,121.17,121.17v50.08c0,18.3-6.83,35.09-18.07,47.93l30.08.11c14.96-33.75,48.76-57.3,88.05-57.3h60.91c-4.59-35.8-35.38-63.71-72.38-63.71h-31.89L499.02,44.79h33.57c3.73,0,6.75-3.03,6.75-6.75,0-10.05-4.11-19.19-10.73-25.81h-.01s-.01,0-.01,0c-6.62-6.62-15.75-10.73-25.78-10.73H62.76v.02c-1.5,0-3.02.5-4.27,1.53-2.87,2.36-3.28,6.6-.93,9.47l24.22,29.36c1.22,1.75,3.25,2.9,5.55,2.9h1.91l25.43,168.8ZM62.39,226.39l17.32,114.96h-8.72l-16.75-114.96h8.15ZM97.16,341.35l-17.32-114.96h8.94l17.32,114.96h-8.94ZM132.05,341.35h-8.5l-17.32-114.96h9.07l16.75,114.96ZM622.59,463.93c-22.21,0-40.21,18-40.21,40.21s18,40.21,40.21,40.21,40.21-18,40.21-40.21-18-40.21-40.21-40.21ZM108.55,463.93c-22.21,0-40.21,18-40.21,40.21s18,40.21,40.21,40.21,40.21-18,40.21-40.21-18-40.21-40.21-40.21ZM166.95,342.06c6.9,21.58,28.32,38.16,50.89,38.16h135.51l-6.9-45.79c-3.79-25.19-27.5-45.79-52.69-45.79h-82.65l-7.35-48.77c-2.19-14.54-15.87-26.43-30.41-26.43h-26.43l11.33,75.2,6.9,45.79c.55,3.63.79,4.48,1.79,7.63Z"/>
  </g>
</svg>