<?xml version="1.0" encoding="UTF-8"?>
<svg id="Layer_2" xmlns="http://www.w3.org/2000/svg" viewBox="0 0 103.49 87.64">
  <defs>
    <style>
      .cls-1 {
        fill: #c3dbe5;
        stroke: #231f20;
        stroke-miterlimit: 10;
      }
    </style>
  </defs>
  <g id="Layer_1-2" data-name="Layer_1">
    <g>
      <path class="cls-1" d="M102.38,70.02c-.67-1.2-1.85-2.25-3.74-3.28-10.96-6-25.48-6.83-39.53-6.83-1.5,0-3.43-.08-5.09-.73-1.96-.75-3.25-2.14-3.82-4.13-.2-.7-.28-1.39-.35-2.05-.05-.44-.09-.85-.17-1.23-.33-1.6-1.73-2.36-4.68-2.54-5.27-.33-10.7.03-16.1,1.05v14.68c3.88.17,7.73,1.45,7.73,4.02,0,2.78-4.49,4.04-8.67,4.04s-8.67-1.26-8.67-4.04c0-2.4,3.37-3.67,6.99-3.97v-14.18c-3.43.78-6.83,1.83-10.16,3.14-3.24,1.27-6.57,3.07-9.12,4.93-3.96,2.89-8.19,7.49-5.8,13,.96,2.21,2.82,4.26,5.39,5.93,8.48,5.53,19.22,7.24,28.6,8.18,12.35,1.25,23.25,1.46,33.32.64,5.66-.46,11.42-1.35,17.62-2.71,4.15-.91,9.31-2.05,13.19-5.02,2.79-2.13,4.75-5.88,3.07-8.9Z"/>
      <path class="cls-1" d="M21.95,68.97c.4.47,2.48,1.42,6.01,1.42s5.61-.95,6.01-1.42c-.4-.47-2.47-1.42-6.01-1.42-.11,0-.22,0-.33,0-.01,0-.03,0-.05,0-3.31.06-5.25.97-5.64,1.42Z"/>
      <path class="cls-1" d="M28.89,23.59c2.07.08,4.45.34,7.35.8,11.81,1.89,18.9-.33,22.77-2.54,1.03-.58,1.89-1.2,2.6-1.79-.51.06-1.06.09-1.64.08-2.31-.05-4.68-.73-7.03-2.03-2.86-1.58-5.71-4.08-8.48-7.43-4.93-5.96-11.64-5.53-15.56-4.98V1.81c0-.72-.59-1.31-1.31-1.31s-1.31.59-1.31,1.31v46.33c.87-.19,1.74-.37,2.62-.53v-24.02h0Z"/>
    </g>
  </g>
</svg>