<?xml version="1.0" encoding="UTF-8"?>
<svg id="Layer_2" xmlns="http://www.w3.org/2000/svg" viewBox="0 0 62.4 88.79">
  <defs>
    <style>
      .cls-1, .cls-2 {
        fill: #c3dbe5;
        stroke: #231f20;
        stroke-miterlimit: 10;
      }

      .cls-2 {
        fill-rule: evenodd;
      }
    </style>
  </defs>
  <g id="Layer_1-2" data-name="Layer_1">
    <g>
      <path class="cls-1" d="M31.2,19.76l-4.16.32c-.85,1.46-1.73,2.9-2.64,4.31-.93,1.45-1.89,2.88-2.87,4.28-1.03,1.46-2.09,2.9-3.18,4.32-1.09,1.42-2.21,2.81-3.36,4.17-2.93,3.47-5.34,6.93-7.23,10.34-1.94,3.49-3.34,6.9-4.19,10.18-.71,2.76-1.04,5.41-.98,7.91.07,2.48.52,4.82,1.36,6.97.85,2.16,2.1,4.12,3.76,5.84,1.61,1.68,3.61,3.13,6,4.31,2.27,1.12,4.89,2,7.87,2.6,2.88.58,6.08.89,9.62.9,3.53-.01,6.74-.33,9.62-.9,2.97-.6,5.59-1.47,7.86-2.6,2.39-1.18,4.39-2.63,6.01-4.31,1.65-1.72,2.9-3.68,3.75-5.84.84-2.14,1.3-4.48,1.36-6.97.07-2.5-.26-5.16-.98-7.91-.85-3.28-2.25-6.69-4.19-10.18-1.89-3.41-4.31-6.87-7.23-10.34-1.15-1.36-2.27-2.75-3.37-4.17-1.09-1.42-2.15-2.86-3.18-4.32-.99-1.4-1.94-2.83-2.87-4.28-.91-1.41-1.78-2.85-2.64-4.31l-4.16-.32ZM37.01,18.77c.85,1.46,1.72,2.89,2.62,4.3.95,1.48,1.93,2.94,2.94,4.39,1.01,1.44,2.05,2.86,3.12,4.25,1.07,1.39,2.17,2.75,3.31,4.09,3.02,3.58,5.52,7.18,7.48,10.72,2.02,3.63,3.47,7.2,4.36,10.63.77,2.97,1.12,5.84,1.04,8.55-.08,2.71-.58,5.26-1.5,7.61-.95,2.4-2.34,4.59-4.16,6.5-1.78,1.86-3.99,3.47-6.61,4.76-2.42,1.19-5.19,2.13-8.32,2.76-3.02.61-6.38.94-10.08.96h0c-3.7-.02-7.06-.35-10.08-.96-3.14-.63-5.91-1.56-8.32-2.76-2.63-1.3-4.83-2.9-6.61-4.76-1.83-1.92-3.22-4.1-4.17-6.5-.92-2.35-1.43-4.9-1.5-7.61-.08-2.71.27-5.58,1.04-8.55.89-3.43,2.34-7,4.36-10.63,1.97-3.54,4.46-7.14,7.48-10.72,1.13-1.34,2.24-2.7,3.31-4.09,1.07-1.39,2.11-2.8,3.13-4.25,1.01-1.45,1.99-2.91,2.94-4.39.9-1.41,1.77-2.84,2.62-4.3h11.63Z"/>
      <path class="cls-1" d="M25.09,18.22l-.17-.83c.34.81.72,1.66,1.14,2.54h-.78c-.41,0-.4.7-.58,1.03-.41-.4-1.17-1.31-1.54-1.76-.92-1.11-1.76-2.33-2.57-3.53h0c-.39-.57-.77-1.13-1.12-1.62-1.1-1.54-1.51-2.74-1.4-3.73.11-1.01.73-1.78,1.68-2.45.39-.28.85-.54,1.35-.78.38-.19.79-.38,1.22-.57-.04.33-.05.68-.05,1.04,0,.4.03.82.08,1.27-.11.06-.23.11-.33.16-.39.2-.74.39-1.03.6-.42.3-.68.65-.69,1.13,0,.51.26,1.18.92,2.1.2.28.39.55.58.83.21.31.39.57.57.83.52.76,1.05,1.54,1.59,2.27.38.51.77,1.01,1.17,1.47h0Z"/>
      <path class="cls-1" d="M36.01,19.14c.59-.34,1.19-.82,1.77-1.41.81-.83,1.58-1.86,2.21-2.95.34-.58.64-1.17.89-1.75.25-.58.45-1.14.59-1.68.14-.51.22-.98.23-1.39.01-.38-.02-.71-.12-.98-.04-.1-.08-.19-.14-.26-.05-.07-.12-.12-.19-.17-.02-.01-.07-.04-.15-.09-.11-.06-.27-.15-.36-.21h0c-.24-.14-.53-.3-.85-.49.2-.8.35-1.54.45-2.19.55.32,1.07.62,1.45.84h0s.08.05.2.12c.05.03.15.08.33.19.29.17.54.39.75.63.21.26.37.55.5.87.18.49.26,1.04.25,1.65,0,.63-.11,1.3-.3,2-.17.63-.4,1.29-.68,1.95-.29.67-.63,1.35-1.02,2.01-.76,1.3-1.71,2.55-2.73,3.55-.48.47-.97.88-1.48,1.23-.16-.41-.55-.7-1.01-.7h-.92c.11-.25.22-.52.33-.79h0Z"/>
      <path class="cls-1" d="M25.82,19.93c-.71-1.51-1.32-2.93-1.83-4.24-.63-1.62-1.11-3.09-1.43-4.4-.34-1.38-.52-2.61-.53-3.68,0-1.08.15-2.01.49-2.77.15-.33.32-.62.52-.88.15-.2.33-.38.51-.54h0s.16-.14.16-.14c.24-.19.49-.35.74-.48.26-.13.53-.24.81-.34.46-.16.99-.22,1.56-.23.56-.01,1.15.02,1.76.05.44.02.9.05,1.33.05.43,0,.86,0,1.26-.05h0s.24-.11.6-.26h0c1.43-.62,4.08-1.76,6.12-1.46.98.15,1.81.56,2.33,1.39.51.81.71,2.01.46,3.73-.13.87-.36,1.89-.65,2.99-.32,1.22-.73,2.55-1.17,3.89-.51,1.53-1.06,3.07-1.61,4.47-.41,1.06-.81,2.05-1.18,2.91h-10.25ZM24.61,10.78c.3,1.19.73,2.51,1.29,3.98.55,1.43,1.24,3.01,2.05,4.73h5.99c.44-1,.94-2.24,1.46-3.57.49-1.29.99-2.67,1.44-4.03.42-1.27.81-2.54,1.12-3.71.28-1.04.49-2,.61-2.82.15-.98.08-1.65-.12-2.08-.19-.39-.5-.58-.87-.63-.72-.11-1.65.08-2.55.36-.92.29-1.81.67-2.43.94h0s0,0,0,0c-.53.23-.92.4-1.18.43-.96.12-1.99.06-2.96,0h-.01c-.52-.03-1.03-.06-1.46-.05-.43,0-.79.04-1.06.12-.17.06-.33.13-.49.2-.15.08-.29.16-.41.26h0c-.11.09-.22.2-.31.32-.1.12-.18.27-.25.43-.23.53-.34,1.22-.32,2.06.02.86.18,1.87.47,3.04h0Z"/>
      <path class="cls-2" d="M29.57,44.63c-3.82.72-5.93,2.8-6.2,6.81-.31,4.66,2.01,6.47,4.98,8.14,2.26,1.28,7.96,2.74,5.76,6.89-.85,1.61-6.43,3.73-7-2.97l-4.97-.11c-.25,5.45,3.14,8.36,7.34,8.93h.09v3.71h3.53v-3.96c3.28-.82,5.47-1.69,6.42-5.52.87-3.53-1.05-6.71-4.14-8.64-2.66-1.65-7.33-2-6.98-5.95.17-1.9,1.45-3.17,3.62-2.77,2,.37,2.42,1.94,2.58,4.16l4.98.11c.05-5.31-2.05-7.75-6.48-8.65v-3.87h-3.53v3.7Z"/>
      <path class="cls-2" d="M36.67,19.01v.04c0,.59-.48,1.07-1.07,1.07h-9.17c-.59,0-1.07-.48-1.07-1.07v-.04c0-.59.48-1.07,1.07-1.07h9.17c.59,0,1.07.48,1.07,1.07h0Z"/>
      <path class="cls-2" d="M29.58,22.57c-.39.82-.92,1.56-1.43,2.28h0c-1.06,1.53-2.02,2.9-.24,4.61.36.31.44.68.34,1-.04.14-.12.27-.22.38-.1.11-.22.21-.36.28-.36.18-.82.19-1.22-.13h0c-3.08-2.96-1.63-5.03-.02-7.34h0c.76-1.09,1.57-2.25,1.62-3.64h2.18c0,.94-.26,1.78-.64,2.56h0Z"/>
      <path class="cls-2" d="M33.47,24.01c-.7-1.43-1.71-2.81-3.31-4.01h3.19c1.08,1.19,1.82,2.47,2.35,3.76.58,1.39.94,2.8,1.27,4.12h0v.05c.52,2,.98,3.76,2.15,4.71.21.17.44.33.68.45.24.13.49.23.74.31h0c.25.08.52.13.79.15.27.02.54.02.81,0,.2-.04.39-.02.57.05.18.07.34.18.46.34.12.16.2.34.22.53.02.19,0,.39-.09.57h0l-.02.04h0c-.04.09-.1.17-.17.24-.07.07-.15.13-.24.18h0c-.07.04-.14.07-.21.09-.07.02-.15.04-.23.04-.43.04-.87.04-1.31,0-.4-.04-.8-.11-1.18-.22h0c-.39-.12-.77-.27-1.13-.46-.36-.19-.71-.42-1.03-.68h0c-.86-.71-1.42-1.59-1.84-2.59-.42-1-.71-2.11-1.01-3.3-.36-1.41-.74-2.93-1.46-4.41h0Z"/>
    </g>
  </g>
</svg>