<?xml version="1.0" encoding="UTF-8"?>
<svg xmlns="http://www.w3.org/2000/svg" version="1.1" viewBox="0 0 64 64">
  <defs>
    <style>
      .cls-1 {
        fill: #c3dbe5;
        stroke: #231f20;
        stroke-miterlimit: 10;
        stroke-width: .8px;
      }
    </style>
  </defs>
  <!-- Generator: Adobe Illustrator 28.6.0, SVG Export Plug-In . SVG Version: 1.2.0 Build 709)  -->
  <g>
    <g id="Bahan_copy">
      <path class="cls-1" d="M58.3,6.7c-1.1-1.3-2.7-2-4.4-2.1H21.4c-2.7,0-4.8,2.2-4.8,4.8v1.6c-5.3-1.4-10.8,1.7-12.3,7.1-1.4,5.3,1.7,10.8,7.1,12.3,1.7.5,3.5.5,5.2,0v17.1h-6.7c-1.1,0-2,.9-2,2v4.9c.1,2.8,2.5,5,5.4,4.9h31.2c1.4,0,2.7-.5,3.7-1.4,1-.9,1.6-2.2,1.6-3.5V21.3h7.9c1.3,0,2.3-1.1,2.3-2.3v-7.4c0-1.8-.6-3.5-1.7-4.8ZM6,20.7c0-4.5,3.7-8,8.1-8,1.1,0,2.1.2,3.1.6,6.4,2.7,6.3,12.1,0,14.7-4.1,1.7-8.8-.2-10.6-4.3-.4-1-.6-2-.6-3ZM13.2,57.3c-1.7.1-3.2-1.2-3.4-2.9v-4.9c5.7,0,23.2,0,29.2,0v4.9c0,1.1.4,2.1,1.1,2.9-3.2,0-24.3,0-26.9,0ZM46.8,56.4c-1.9,1.8-5.8.6-5.8-2v-5.9c0-.6-.4-1-1-1h-21.5v-17.9c4.9-2.5,6.9-8.6,4.3-13.5-1-1.9-2.5-3.4-4.3-4.3v-2.3c0-1.6,1.3-2.8,2.8-2.8h28.2c-1.2,1.3-1.8,3.1-1.8,4.8,0,5.8,0,30.7,0,37v5.9c0,.8-.4,1.5-.9,2ZM58,19c0,.2-.2.3-.3.3h-7.8v-7.8c0-2.7,1.8-4.8,4.1-4.8,2.4,0,4.2,2.5,4.1,4.8v7.4Z"/>
      <path class="cls-1" d="M17.7,23.2c0-2-1.7-3.5-3.7-3.5-.8,0-1.6-.5-1.7-1.3,0-.8.5-1.6,1.3-1.7.1,0,.2,0,.3,0,.9,0,1.6.6,1.7,1.5,0,.6.4,1,1,1,.6,0,1-.4,1-1,0-1.6-1.1-3-2.7-3.3v-.7c0-.6-.4-1-1-1s-1,.4-1,1v.7c-1.5.4-2.6,1.7-2.7,3.3,0,2,1.7,3.5,3.7,3.5.8,0,1.6.5,1.7,1.3s-.5,1.6-1.3,1.7c-.1,0-.2,0-.3,0-.9,0-1.6-.6-1.7-1.5,0-.6-.4-1-1-1s-1,.4-1,1c0,1.6,1.1,3,2.7,3.3v.7c0,.6.5,1,1,1,.5,0,1-.4,1-1v-.7c1.5-.4,2.6-1.7,2.7-3.3Z"/>
      <path class="cls-1" d="M28,13h12c.6,0,1-.5,1-1,0-.5-.4-1-1-1h-12c-.6,0-1,.5-1,1,0,.5.4,1,1,1Z"/>
      <path class="cls-1" d="M44,19h-17.4c-.6,0-1,.5-1,1,0,.5.4,1,1,1h17.4c.6,0,1-.5,1-1,0-.5-.4-1-1-1Z"/>
      <path class="cls-1" d="M26.6,26.7h12.9c.6,0,1-.5,1-1,0-.5-.4-1-1-1h-12.9c-.6,0-1,.5-1,1,0,.5.4,1,1,1Z"/>
      <path class="cls-1" d="M26.6,32.4h16.5c.6,0,1-.5,1-1,0-.5-.4-1-1-1h-16.5c-.6,0-1,.5-1,1,0,.5.4,1,1,1Z"/>
      <path class="cls-1" d="M44,36.1h-17.4c-.6,0-1,.5-1,1,0,.5.4,1,1,1h17.4c.6,0,1-.5,1-1,0-.5-.4-1-1-1Z"/>
      <path class="cls-1" d="M38.6,41.9h-12c-.6,0-1,.5-1,1,0,.5.4,1,1,1h12c.6,0,1-.5,1-1,0-.5-.4-1-1-1Z"/>
    </g>
  </g>
</svg>