<?xml version="1.0" encoding="UTF-8"?>
<svg id="Layer_2" xmlns="http://www.w3.org/2000/svg" viewBox="0 0 863.76 1157.9">
  <defs>
    <style>
      .cls-1 {
        fill: #c2dbe5;
        stroke: #000;
        stroke-linecap: round;
        stroke-linejoin: round;
        stroke-width: 35px;
      }
    </style>
  </defs>
  <g id="Layer_2-2" data-name="Layer_2">
    <g>
      <path class="cls-1" d="M846.26,69.83v868.24c0,28.9-23.41,52.33-52.31,52.33h-476.42c0-82.85-67.17-150.02-150.02-150.02V69.83c0-28.9,23.43-52.33,52.32-52.33h574.12c28.9,0,52.31,23.43,52.31,52.33Z"/>
      <rect class="cls-1" x="292.2" y="260.72" width="93.77" height="140.49"/>
      <rect class="cls-1" x="460" y="190.02" width="93.77" height="211.19"/>
      <rect class="cls-1" x="627.81" y="115.07" width="93.77" height="286.14"/>
      <line class="cls-1" x1="292.2" y1="528.66" x2="731.73" y2="528.66"/>
      <line class="cls-1" x1="292.2" y1="643.2" x2="731.73" y2="643.2"/>
      <line class="cls-1" x1="292.2" y1="757.74" x2="731.73" y2="757.74"/>
      <line class="cls-1" x1="357" y1="872.28" x2="731.73" y2="872.28"/>
      <path class="cls-1" d="M317.53,990.39c0,82.85-67.17,150.01-150.02,150.01s-150.01-67.15-150.01-150.01,67.15-150.02,150.01-150.02,150.02,67.17,150.02,150.02Z"/>
      <path d="M169.93,895.12c2.87,0,5.29,2.43,5.29,5.29v8.82c15.88,1.32,27.34,6.62,39.25,15.44,1.98,1.54,3.09,2.87,3.09,5.07,0,3.09-2.65,5.51-5.73,5.51-1.32,0-2.43-.22-3.97-1.54-10.81-8.6-21.39-13.01-33.08-14.33v61.75c33.52,7.06,47.63,19.63,47.63,41.24,0,23.37-19.63,39.91-47.19,40.8v17.2c0,2.87-2.43,5.29-5.29,5.29s-5.29-2.42-5.29-5.29v-17.42c-19.19-1.54-34.84-8.6-49.62-21.39-1.54-1.32-2.43-2.65-2.43-4.63,0-2.87,2.65-5.51,5.51-5.51,1.98,0,3.31.88,3.97,1.54,12.35,11.47,25.8,18.3,43,20.07v-62.85c-33.08-7.28-46.75-19.41-46.75-41.46s19.41-39.25,46.31-39.92v-8.38c0-2.87,2.43-5.29,5.29-5.29ZM165.08,978.92v-60.2c-21.39.44-35.5,13.23-35.5,29.11,0,14.99,7.06,24.26,35.5,31.09ZM174.79,992.37v60.86c22.05-.44,36.39-13.23,36.39-29.99,0-15.22-7.72-24.48-36.39-30.87Z"/>
    </g>
  </g>
</svg>