<?xml version="1.0" encoding="UTF-8"?>
<svg id="Layer_2" xmlns="http://www.w3.org/2000/svg" xmlns:xlink="http://www.w3.org/1999/xlink" viewBox="0 0 288 208.26">
  <defs>
    <style>
      .cls-1, .cls-2 {
        fill: none;
      }

      .cls-3 {
        fill: #f9f9fa;
      }

      .cls-4 {
        fill: #231f20;
      }

      .cls-2 {
        stroke: #231f20;
        stroke-miterlimit: 10;
        stroke-width: 2px;
      }

      .cls-5 {
        fill: #fff;
      }

      .cls-6 {
        fill: #c2dbe5;
      }

      .cls-7 {
        clip-path: url(#clippath);
      }
    </style>
    <clipPath id="clippath">
      <rect class="cls-1" width="288" height="208.26"/>
    </clipPath>
  </defs>
  <g id="Layer_1-2" data-name="Layer_1">
    <g class="cls-7">
      <path class="cls-3" d="M144.04,120.97l-42.75,87.24L0,.52l5.27-.11c2.11-.04,3.39-.06,4.77-.06h3.99c4.01,0,8.02,0,12.04.01,4.01,0,8.01.02,12.02.02,8.05,0,14.55-.04,20.43-.12h.27c5.72,0,10.29,2.21,14.4,6.98,5.39,6.24,8.3,13.64,11.11,20.8l.04.11c4.35,11.05,9.89,21.85,15.26,32.29,2.45,4.77,4.99,9.7,7.39,14.63.27.55.54,1.1.82,1.65.38.76.76,1.52,1.13,2.29,6.7,14.02,5.27,22.66-5.65,34.23l-2.72,2.89-2.41-3.16c-1.08-1.41-39.92-81.22-40.31-82.01-2.1-4.35-4.36-5.89-8.67-5.89h-.25c-1.71.02-3.5.08-5.26.13-1.29.04-2.51.07-3.68.1,7.98,16.08,15.86,32.24,22.65,46.16,5.89,12.09,11.77,24.18,17.65,36.27l.39.79c6.86,14.11,13.72,28.23,20.6,42.33l1.67-3.37c3.16-6.38,6.33-12.75,9.47-19.13,1.61-3.27,3.2-6.55,4.78-9.83,3.06-6.32,6.22-12.86,9.51-19.22,2.56-4.96,2.57-9.27.03-14.4-10.32-20.83-20.65-42.07-30.65-62.62l-5.6-11.52c-1.45-2.99-2.5-5.14-1.12-7.35,1.37-2.19,3.75-2.19,7.04-2.2,15.88,0,31.76,0,47.65,0s31.76,0,47.65,0c3.4,0,5.65,0,7,2.16,1.36,2.17.36,4.24-1.16,7.38l-9.29,19.21c-9.38,19.4-18.76,38.81-28.16,58.2-1.34,2.77-1.38,4.92-.15,7.43,6.46,13.16,12.94,26.58,19.21,39.56,2.53,5.23,5.02,10.41,7.53,15.57l5.92-12.09c6.63-13.55,13.13-26.81,19.61-40.08,3.64-7.45,7.27-14.9,10.9-22.36,8.11-16.65,16.5-33.86,24.85-50.81-1.11,0-3.4-.04-3.4-.04-1.51-.02-2.98-.04-4.51-.04-5.04,0-7.45,1.49-9.56,5.89-7.22,15.04-14.71,30.24-21.95,44.93-2.22,4.51-4.44,9.01-6.66,13.52-2.57,5.22-5.16,10.42-7.77,15.68l-5.91,11.89-3.32-3.62c-9.91-10.83-12.07-23.73-5.9-35.39,5.16-9.75,10.99-20.79,16.37-31.73,4.99-10.15,9.84-20.59,14.53-30.69l2.21-4.76C215.83,2.99,220.35,0,228.76,0c.77,0,1.56.02,2.44.07,5.42.29,10.88.33,15.02.33,2.03,0,4.06,0,6.1-.02h.26c2.13-.01,4.26-.02,6.39-.02h2.21c2.62.01,5.23.02,7.9.02h18.92s-101.21,207.89-101.21,207.89l-42.74-87.29ZM125.93,26.27c5.95,12.07,11.93,24.17,18.09,36.64l3.36-6.77c5.03-10.15,9.92-20,14.79-29.86h-36.24Z"/>
      <path class="cls-4" d="M144.04,117.14l-42.75,87.23L2.67,2.15l2.63-.06c2.09-.04,3.37-.06,4.73-.06h3.99c4.01,0,8.02,0,12.03.01,4.01,0,8.02.02,12.02.02,8.05,0,14.55-.04,20.46-.12h.26c5.18,0,9.34,2.03,13.11,6.39,5.2,6.03,8.06,13.29,10.82,20.32l.04.1c4.38,11.13,9.95,21.97,15.33,32.45,2.45,4.77,4.98,9.69,7.37,14.6.27.56.55,1.11.83,1.67.38.75.75,1.5,1.11,2.26,6.41,13.41,5.11,21.27-5.36,32.34l-1.36,1.44-1.2-1.58c-.9-1.18-39.75-80.93-40.13-81.72-2.37-4.92-5.23-6.84-10.19-6.84h-.27c-1.73.03-3.54.08-5.31.13-1.64.05-3.26.09-4.77.11-.72.01-1.15.06-1.41.11.09.27.26.7.62,1.42,8.13,16.38,16.18,32.87,23.08,47.04,6.02,12.35,12.02,24.71,18.03,37.06,7.16,14.73,14.33,29.47,21.51,44.19.12.24.22.49.33.74.08.2.16.38.24.55l3.23-6.51c3.17-6.38,6.33-12.75,9.47-19.13,1.61-3.27,3.2-6.55,4.79-9.84,3.06-6.31,6.21-12.83,9.49-19.18,2.8-5.42,2.81-10.33.04-15.93-10.32-20.82-20.65-42.07-30.64-62.62l-5.6-11.51c-1.35-2.77-2.09-4.3-1.21-5.72.88-1.4,2.56-1.4,5.61-1.4,15.88,0,31.76,0,47.65,0s31.77,0,47.65,0c3.14,0,4.71,0,5.57,1.37.86,1.38.16,2.84-1.25,5.75l-9.29,19.22c-9.38,19.4-18.76,38.81-28.15,58.2-1.57,3.25-1.62,5.91-.15,8.91,6.47,13.18,12.96,26.62,19.24,39.62,2.73,5.65,5.46,11.3,8.19,16.95.25.52.52,1.03.84,1.61l7.41-15.13c6.64-13.55,13.13-26.81,19.61-40.08,3.64-7.45,7.27-14.9,10.9-22.36,8.21-16.85,16.71-34.28,25.14-51.38.16-.33.58-1.18.76-1.73-.3-.06-.84-.11-1.74-.12-1.41,0-2.74-.02-4.03-.04-1.57-.02-3.1-.04-4.69-.04-5.7,0-8.69,1.86-11.09,6.85-7.21,15.02-14.7,30.22-21.94,44.91-2.22,4.51-4.44,9.01-6.66,13.52-2.6,5.28-5.22,10.55-7.87,15.87l-4.72,9.49-1.66-1.81c-9.4-10.27-11.47-22.47-5.65-33.46,5.15-9.75,11-20.81,16.39-31.77,5-10.16,9.86-20.62,14.55-30.74l2.21-4.75c3.46-7.43,7.42-10.07,15.15-10.07.73,0,1.5.02,2.35.07,5.47.29,10.94.33,15.11.33,2.12,0,4.24-.01,6.37-.02,2.13-.01,4.26-.02,6.38-.02h2.21c2.62.01,5.23.02,7.9.02h16.23s-98.52,202.37-98.52,202.37l-42.74-87.28ZM123.22,24.59c6.51,13.22,13.04,26.43,19.8,40.11l.99,2.01,4.77-9.61c5.18-10.44,10.2-20.57,15.21-30.71.28-.55.61-1.23.84-1.76-.57-.03-1.3-.03-1.81-.03h-39.81Z"/>
      <path class="cls-6" d="M261.17,3.73c-10.05-.04-20.12.24-30.15-.29-8.48-.46-12.31,1.36-15.88,9.03-5.52,11.87-11,23.77-16.77,35.52-5.27,10.71-10.84,21.26-16.42,31.82-5.82,11.01-2.97,22.38,5.41,31.54,3.89-7.83,7.71-15.48,11.49-23.15,9.57-19.46,19.22-38.88,28.6-58.42,2.66-5.54,6.24-7.82,12.61-7.8,2.9,0,5.6.06,8.73.08,4.24.03,4.06,1.07,2.48,4.28-12.09,24.54-24.03,49.15-36.04,73.74-9.32,19.08-18.67,38.16-28.43,58.11-1.1-2.01-1.83-3.23-2.45-4.51-9.14-18.86-18.19-37.75-27.43-56.56-1.79-3.65-1.54-6.91.14-10.39,12.5-25.79,24.96-51.61,37.44-77.42,2.26-4.68,2.27-4.71-2.81-4.71-31.76,0-63.53,0-95.29,0-5.05,0-5.14.07-2.89,4.7,12.03,24.73,24.03,49.48,36.24,74.12,2.98,6.01,3.02,11.51-.05,17.45-4.94,9.57-9.51,19.33-14.27,28.99-4.55,9.24-9.15,18.46-13.73,27.71-1.76-.85-2.02-2.24-2.57-3.36-13.2-27.07-26.35-54.18-39.54-81.26-7.65-15.7-15.31-31.38-23.08-47.02-1.42-2.85-1.4-3.91,2.28-3.96,3.14-.05,6.75-.19,10.08-.24,5.82-.08,9.34,2.27,12,7.79,2,4.15,39.25,80.51,39.95,81.43,9.91-10.49,11.16-17.71,5.06-30.46-.63-1.31-1.3-2.6-1.94-3.91-7.66-15.69-16.35-30.88-22.75-47.16-2.78-7.06-5.53-14.1-10.57-19.94-3.17-3.67-6.86-5.88-12.07-5.81-16.17.22-32.35.06-48.52.08-1.35,0-2.62.01-4.7.06,31.84,65.28,63.86,130.96,95.96,196.77,14.39-29.37,28.38-57.92,42.75-87.23,14.4,29.41,28.41,58.01,42.73,87.27,32.15-66.04,63.87-131.2,95.83-196.85-7.76,0-14.6.02-21.44,0M144.01,70.51c-7.72-15.63-15.12-30.59-22.5-45.56-.12-.24-.28-1.1-.06-1.56.23-.45.85-.49,1.38-.49,7.53,0,15.14,0,22.38,0,5.82,0,11.63,0,17.45,0,4.86,0,4.91.03,2.83,4.22-7.01,14.18-14.05,28.36-21.49,43.38"/>
      <path class="cls-4" d="M108.98,118.77c-5.49,0-8.24-2.29-9.57-4.22-2.33-3.36-2.4-8.45-.2-14.32,3.22-8.55,11.43-21.79,15.91-27.52.69-.83,1.73-1.9,3.14-1.9.68,0,1.33.24,1.93.72-.14-.18-.27-.37-.39-.56-2.23-3.43-1.88-7.7.86-10.36.91-.88,2.09-1.35,3.4-1.35,2.46,0,5.02,1.7,6.35,4.23,2.03,3.7.82,7.5-1.16,9.46-.92.9-2.22,1.4-3.64,1.4-1.59,0-3.12-.6-4.36-1.68,1.95,2.71,2.39,7.86-.5,13.34-1.08,2.07-2.59,4.56-4.18,7.19-2.25,3.73-4.59,7.59-6.06,10.78-2.01,4.43-2.1,6.99-1.55,7.83.07.11.24.37.96.37.06,0,.12,0,.19,0,4.39-.18,10.73-6.46,14.48-14.31l.04-.08.04-.07c.59-.97,1.48-1.52,2.43-1.52s1.89.58,2.44,1.58c1.23,2.25.95,5.11-.84,8.51-3.91,7.35-12.01,12.49-19.72,12.49"/>
      <path class="cls-4" d="M156.44,119.1c-5.04,0-8.64-1.5-10.7-4.45-2.34-3.35-2.4-8.34-.18-14.42,2.15-5.82,6.16-11.9,9.09-16.34.96-1.45,2.05-3.11,2.81-4.39-2.6,1.18-7.3,4-12.67,9.35-7.04,6.96-12.38,17.59-17.54,27.87-.82,1.68-2.04,1.94-2.69,1.94-.78,0-1.54-.34-2.27-1.01-3.19-2.9-3.75-7.37-1.68-13.28,2.62-7.52,12.36-23.3,19.81-33.32.89-1.28,1.94-1.56,2.65-1.56.6,0,1.74.21,2.68,1.64,1.24,1.88,1.78,4.2,1.62,6.85,4.59-3.85,10.63-7.98,14.65-7.98.27,0,.52.02.77.05,2.54.35,4.94,2.17,6.26,4.74,1.5,2.93,1.42,6.4-.23,9.52-1.17,2.24-3,5.09-4.94,8.12-2.4,3.76-4.89,7.64-6.41,10.77-1.99,4.05-2.11,7.11-1.34,8.34.21.33.57.72,1.52.72h.18c3.62-.17,8.96-5.61,14.3-14.56.84-1.38,1.94-1.59,2.52-1.59.93,0,1.78.49,2.4,1.39,1.31,1.88.95,5.08-1,8.76-3.29,6.21-11.27,12.82-19.59,12.82"/>
      <path class="cls-4" d="M183.11,118.78c-.18,0-.36,0-.55-.01-4.4-.12-8.23-2.28-10.49-5.91-2.9-4.66-2.78-10.96.33-17.76,2.03-4.41,8.92-15.79,14.45-24.93.94-1.55,1.83-3.03,2.65-4.39-.38,0-.79,0-1.22,0-5.18.04-13.86.12-22.42.12-24.64,0-25.07-.53-25.76-1.4-1-1.28-1.13-3.15-.34-4.78.71-1.46,2.02-2.36,3.42-2.36.07,0,.34,0,.34,0,1.1,0,4.28-.16,8.32-.36,8.68-.44,21.81-1.1,31.87-1.1,5.04,0,8.7.16,11.13.5,2.77-4.36,4.52-6.33,6.07-8.08.4-.45.79-.89,1.19-1.36.81-1.07,2.98-1.64,6.4-1.64,5.61,0,6.31,1.53,6.54,2.03,1.23,2.84-.23,4.72-1.78,6.7-.57.73-1.23,1.58-1.9,2.62,7.06,1.12,22.56,5.41,23.96,7.49.67,1.05,2.08,3.6,1.1,5.38-.45.82-1.3,1.29-2.33,1.29h-.21c-.92-.13-3.6-.72-8.26-1.77-6.98-1.56-17.33-3.88-20.71-4.13-1.34,2.07-3.18,4.8-5.27,7.9-5.73,8.49-13.57,20.12-16.85,26.72-2.75,5.54-2.5,9.6-1.44,11.39.55.93,1.35,1.4,2.45,1.45h.15c4.1,0,10.53-6.38,15.29-15.17.68-1.24,1.77-1.97,2.92-1.97.98,0,2.22.6,2.74,2.27.85,2.47-.13,5.1-1.31,7.58-1.73,3.52-10.11,13.67-20.48,13.67"/>
      <path class="cls-4" d="M260.43,118.78c-.24,0-.47,0-.71-.02-4.62-.22-8.22-2.04-10.42-5.26-2.48-3.64-2.83-8.61-1-14.01,1.57-4.56,4.97-9.87,10.14-15.84-2.94.86-5.41,1.14-7.02,1.22-11.47,21.52-25.27,33.47-38.92,33.68h-.4c-7.06,0-12.59-2.78-15.56-7.84-3.52-5.99-2.92-14.41,1.61-22.53,7.1-12.73,17.45-18.53,24.07-18.53,1.68,0,3.2.35,4.49,1.03,3.05,1.67,5.53,3.34,7.75,6.12,2.84,3.65,1.04,11.14-4.08,17.08-4.1,4.84-8.98,7.41-14.12,7.41-2.96,0-5.91-.86-8.78-2.56-1.37,4.52-1.25,8.54.38,11.01.96,1.45,2.4,2.25,4.18,2.31.19,0,.38.01.56.01,11.36,0,23.71-14.65,30.77-28.78-2.29-1.5-3.31-3.96-2.83-6.97.96-5.98,8.08-13.88,12.7-14.08h.16c1.32,0,2.43.57,3.12,1.62,1.66,2.5.58,7.34-1.01,11.75,2.99-.79,6.16-2.24,9.76-4.43,1.08-.66,2.07-1.2,3.16-1.2.66,0,1.6.21,2.4,1.18,3.12,3.18,6.13,9.41,1.77,13.79-7.01,7.06-11.99,13.9-13.67,18.75-1.31,3.85-.93,6.44-.14,7.58.4.58.93.86,1.65.88h.18c3.88,0,9.57-6.06,13.54-14.42l.04-.09c.57-1.03,1.49-1.65,2.48-1.65s1.85.58,2.34,1.61c.86,1.73,1.05,5.2-.6,8.7-3.3,7.21-10.88,12.46-18.02,12.46M209.99,92.86c.61.19,1.22.29,1.83.29,3.34,0,6.31-2.9,9.03-6.03,3.33-3.89,5-7.9,4.97-9.18-.02,0-.05,0-.08,0-2.66,0-10.61,5.57-15.6,14.66,0,0-.13.21-.16.26"/>
      <path class="cls-4" d="M37.98,153.17c-1.77,0-2.49-.19-7.98-22.2-1.53-6.15-1.3-24.47.03-29.68.21-.81.48-1.9.82-3.23,5.68-22.69,10.22-36.67,14.31-43.68-6.38,2.61-15.49,7.06-17.85,11.26.98.17,2.35.33,3.14.42,2.79.31,3.94.44,4.16,1.89.09.61-.14,1.48-1.1,1.9-5.09,2.23-10.79,5.35-15.36,7.85-1.77.97-3.36,1.84-4.65,2.51l-5.19,2.71,2.92-4.99c.07-.17.17-.5.32-.95,4.82-14.74,11.97-25.09,21.25-30.77,6.66-4.08,16.3-4.94,23.21-4.94,3.82,0,6.84.27,8.3.42,3.89.42,4.28.76,4.67,1.38,1.78,2.77-1.19,6-5.31,10.47-3.14,3.41-6.7,7.28-8.29,11.13-2.3,5.72-5.29,19.48-7.36,29.88,6.41-12.45,13.61-22.61,23.71-33.78,1.29-1.34,5.78-1.45,7.13-1.45,4.46,0,6,.98,6.6,1.56.56.28,1.14.91.9,2.07-.05.24-.15.74-.28,1.92-.83,7.62-1.06,10.68-1.56,17.38-.09,1.19-.19,2.5-.3,3.97,9.92-17.29,22.22-30.32,32.17-40.01l.39-.38.53-.08c.52-.08,12.88-1.95,18.24-1.95,1.37,0,3.65,0,3.94,1.87.56,2.95-3.02,4.82-8.44,7.66-5.42,2.84-12.17,6.38-16.31,11.72-15.61,20.39-26.39,44.7-26.86,47.32v.45s.16.11.16.11c-.04.07-.1.14-.16.22v.24s-.34.15-.34.15c-.3.29-.72.55-1.29.55-.04,0-.09,0-.13,0-1.29.34-3.04.42-4.39.42-1.12,0-6.81-.08-8.61-1.59-4.22-3.51-4.41-22.35-2.44-34.97-10.05,15.65-20.55,42.38-22.5,58.66l-.05.42-.24.35c-.37.53-.95.83-1.58.83-1.52,0-2.39-1.4-4.67-5.44-.23-.4-.48-.85-.75-1.31-.49,3.47-.5,8.38-.51,12.26-.01,7.23-.02,9.41-2.31,9.42h-.05Z"/>
      <path class="cls-5" d="M45.53,135.5c-.86,1.22-4.73-7.7-6.32-8.93-3.95,8.3,2.62,47.69-8.51,3.05-1.51-6.07-1.2-24.05.03-28.85,2.16-8.31,11.38-48.1,19.06-51.04,4.26-1.63-23.46,6.9-25.55,15.79-.28,1.19,8.89,1.3,7.65,1.84-7.16,3.14-15.5,8.01-20.12,10.42.56-.96,5.6-21.67,20.95-31.07,11.48-7.03,33.52-4.23,33.88-3.66,2.08,3.23-10.19,11.48-13.74,20.06-4.02,9.98-9.96,43.32-9.94,43.28,8.3-19.18,16.55-31.53,29.1-45.4.86-.89,9.79-1.59,11.45.36.51.42.3-.61-.03,2.43-1.2,11.04-1.15,12.58-2.48,29.23,0,.04.04.06.06.03,10.42-20.81,24.87-36.1,35.58-46.53,0,0,20.02-3.05,20.26-1.49.73,3.9-16.42,7.75-24.42,18.09-18.18,23.74-29.69,52.25-26.76,47.96-.98,1.34-10.86.99-12.45-.35-4.14-3.44-3.98-30.7,0-41.31.01-.04-.03-.06-.06-.03-10.99,13.14-25.24,46.07-27.64,66.12"/>
      <path class="cls-5" d="M99.84,99.88c3.06-8.13,11.13-21.28,15.66-27.08,1.1-1.34,1.96-1.67,2.94-.67,1.84,1.78,2.81,6.57-.12,12.15-2.57,4.9-7.71,12.48-10.28,18.05-2.94,6.46-2.69,10.81,1.22,10.58,5.5-.22,12.23-7.58,15.9-15.27.61-1,1.47-.89,1.96,0,.98,1.78.61,4.12-.86,6.91-3.67,6.91-11.38,11.59-18.23,11.59-9.3,0-11.62-7.13-8.2-16.27M127.12,70.8c-1.59,1.56-5.02,1.23-6.85-1.67-1.96-3.01-1.35-6.35.61-8.25,1.96-1.89,5.5-.56,7.1,2.45,1.59,2.9.73,5.91-.86,7.47"/>
      <path class="cls-5" d="M161.62,70.8c4.04.56,7.83,6.02,4.77,11.81-2.57,4.9-8.56,13.15-11.38,18.94-3.18,6.46-2.45,11.7,1.96,11.48,5.02-.22,11.01-7.58,15.66-15.38.61-1,1.47-1,2.08-.11.86,1.23.61,3.79-1.1,7.02-3.3,6.24-11.01,11.92-18.11,11.92-10.4,0-12.84-6.91-9.3-16.6,4.04-10.92,14.8-22.73,12.6-23.62-1.22-.45-8.32,2.67-16.15,10.47-7.22,7.13-12.6,17.83-17.86,28.3-.49,1-1.22,1.45-2.32.44-2.45-2.23-3.18-5.9-1.22-11.48,2.45-7.02,11.87-22.51,19.57-32.87.86-1.23,1.84-1.11,2.57,0,1.84,2.79,1.71,6.57.37,10.59,5.51-5.35,13.82-11.48,17.86-10.92"/>
      <path class="cls-5" d="M140.49,62.52c-1.22-1.56.02-4.51,1.86-4.4,3.43.11,42.8-2.69,52.39-.8,3.79-6.13,5.63-7.74,7.71-10.19,1.1-1.45,9.51-1.34,10.12,0,1.35,3.12-1.97,4.23-4.9,10.03,4.77-.11,24.34,5.57,25.32,7.02.86,1.34,2,4.04.17,4.04-2.69-.34-27.05-6.34-30.1-5.89-4.77,7.47-18.06,26.19-22.71,35.55-4.04,8.14-2.69,15.04,2.45,15.27,5.51.22,12.48-7.69,17-16.05.73-1.34,2.08-1.56,2.57,0,.61,1.78,0,3.79-1.22,6.35-1.59,3.23-9.66,13.04-19.45,12.7-8.07-.22-14.56-8.47-8.69-21.28,2.57-5.57,13.3-22.93,18.56-31.73-4.16,0-50.09.61-51.07-.62"/>
      <path class="cls-5" d="M258.87,116.15c-9.3-.45-12.97-8.02-9.91-17.05,2.57-7.47,9.91-15.71,15.17-21.06-5.38,3.12-10.89,4.23-14.68,4.23-10.15,19.39-23.36,33.43-37.92,33.65-15.54.22-20.8-13.6-12.85-27.86,7.71-13.82,20.18-20.06,26.3-16.83,3.06,1.67,5.26,3.23,7.22,5.68,2.08,2.67.86,9.25-4.04,14.93-5.75,6.8-13.94,9.58-22.51,3.34-3.91,10.14-.86,17.38,5.38,17.6,13.46.56,26.91-17.05,33.64-31.2-9.42-3.57,2.57-18.39,7.71-18.61,3.79-.11,2.57,6.69-.49,13.93,4.28-.56,8.56-2.34,13.33-5.24,1.47-.89,2.57-1.45,3.43-.33,2.45,2.45,5.5,7.8,1.83,11.48-5.75,5.79-11.99,13.37-14.07,19.39-2.08,6.13-.61,10.58,3.06,10.7,5.14.22,11.38-7.13,15.29-15.38.49-.89,1.35-1.11,1.84-.11.61,1.23.86,4.12-.61,7.24-3.06,6.69-10.4,11.81-17.13,11.48M221.19,87.29c3.91-4.57,6.48-10.36,4.89-11.59-2.69-2.12-12.72,4.9-18.35,15.16-.37.56-.61,1.34-.98,1.89,5.99,3.34,10.76-1.23,14.43-5.46"/>
      <path class="cls-5" d="M194.21,180.22h-100.41c-4.74,0-8.57-3.84-8.57-8.57v-9.9c0-4.73,3.84-8.57,8.57-8.57h100.41c4.74,0,8.57,3.84,8.57,8.57v9.9c0,4.74-3.84,8.57-8.57,8.57"/>
      <rect class="cls-2" x="85.22" y="153.17" width="117.56" height="27.05" rx="8.57" ry="8.57"/>
      <path class="cls-6" d="M176.67,156.58h-2.56c-.28,0-.52.25-.52.52v18.25c0,.28.25.52.52.52h2.56c.28,0,.52-.25.52-.52v-18.25c0-.28-.25-.52-.52-.52"/>
      <path class="cls-6" d="M105.34,170.97c-.17-.17-.47-.19-.69,0-1.16.94-2.56,1.57-4.22,1.57-3.53,0-6.18-2.92-6.18-6.37s2.62-6.42,6.15-6.42c1.54,0,3.09.61,4.25,1.63.22.22.5.22.69,0l1.68-1.74c.22-.22.22-.55-.03-.77-1.87-1.68-3.89-2.56-6.67-2.56-5.49,0-9.9,4.39-9.95,9.87,0,.03,0,.06,0,.08,0,5.51,4.44,9.9,9.95,9.9,2.45,0,4.82-.85,6.7-2.67.19-.19.25-.55.03-.74l-1.71-1.76Z"/>
      <path class="cls-6" d="M121.25,172.57h-7.03v-15.47c0-.28-.25-.52-.52-.52h-2.54c-.3,0-.52.25-.52.52v18.25c0,.28.22.52.52.52h10.09c.3,0,.52-.25.52-.52v-2.26c0-.28-.22-.52-.52-.52"/>
      <path class="cls-6" d="M137.09,166.18l-4.38-9.57c-.08-.17-.19-.3-.47-.3h-.28c-.25,0-.39.14-.47.3l-4.42,9.57-4.15,8.99c-.17.36.05.72.47.72h2.4c.44,0,.69-.28.8-.55l1.35-2.98h8.24l1.35,2.98c.19.39.39.55.8.55h2.4c.41,0,.63-.36.47-.72l-4.11-8.99ZM129.29,169.29l1.39-3.12,1.31-2.95h.08l1.34,2.95,1.42,3.12h-5.54Z"/>
      <path class="cls-6" d="M152.64,166.18c-1-.73-2.18-1.26-3.28-1.71-2.23-.91-3.25-1.79-3.25-3.09,0-.88.85-1.93,2.43-1.93s3.61,1.38,3.83,1.52c.33.22.74,0,.96-.33l1.05-1.57c.19-.28.11-.74-.17-.91-.55-.41-2.7-1.85-5.51-1.85-4.38,0-6.2,2.84-6.2,5.29,0,2.11,1.09,3.54,2.56,4.58.8.56,1.71,1.01,2.62,1.38,2.32.94,3.5,1.9,3.5,3.31,0,1.19-1.07,2.12-2.51,2.12-1.79,0-4.03-1.63-4.16-1.71-.25-.19-.72-.19-.94.19l-.99,1.71c-.25.44-.11.58.14.83.55.52,2.59,2.15,6.07,2.15,3.89,0,6.34-2.62,6.34-5.46,0-2.08-1.06-3.49-2.48-4.52"/>
      <path class="cls-6" d="M167.58,166.18c-1-.73-2.18-1.26-3.28-1.71-2.23-.91-3.25-1.79-3.25-3.09,0-.88.85-1.93,2.43-1.93s3.61,1.38,3.83,1.52c.33.22.74,0,.96-.33l1.05-1.57c.19-.28.11-.74-.17-.91-.55-.41-2.7-1.85-5.51-1.85-4.38,0-6.2,2.84-6.2,5.29,0,2.11,1.09,3.54,2.56,4.58.8.56,1.71,1.01,2.62,1.38,2.32.94,3.5,1.9,3.5,3.31,0,1.19-1.07,2.12-2.51,2.12-1.79,0-4.03-1.63-4.16-1.71-.25-.19-.72-.19-.94.19l-.99,1.71c-.25.44-.11.58.14.83.55.52,2.59,2.15,6.07,2.15,3.89,0,6.34-2.62,6.34-5.46,0-2.08-1.06-3.49-2.48-4.52"/>
      <path class="cls-6" d="M197.48,172.74l-1.71-1.76c-.16-.17-.47-.19-.69,0-1.16.94-2.56,1.57-4.22,1.57-3.53,0-6.18-2.92-6.18-6.37s2.62-6.42,6.15-6.42c1.54,0,3.09.61,4.25,1.63.22.22.5.22.69,0l1.68-1.74c.22-.22.22-.55-.03-.77-1.88-1.68-3.89-2.56-6.67-2.56-5.49,0-9.9,4.4-9.95,9.87,0,.03,0,.06,0,.08,0,5.51,4.44,9.9,9.95,9.9,2.45,0,4.83-.85,6.7-2.67.19-.19.25-.55.03-.74"/>
    </g>
  </g>
</svg>